  0
SECTION
  2
HEADER
  9
$ACADVER
  1
AC1009
  9
$INSBASE
 10
0.0
 20
0.0
 30
0.0
  9
$EXTMIN
 10
0.0
 20
0.0
 30
0.0
  9
$EXTMAX
 10
0.0
 20
0.0
 30
0.0
  0
ENDSEC
  0
SECTION
  2
TABLES
  0
TABLE
  2
VPORT
 70
0
  0
ENDTAB
  0
TABLE
  2
LTYPE
 70
1
  0
LTYPE
  2
CONTINUOUS
 70
0
  3
Solid line
 72
65
 73
0
 40
0.0
  0
ENDTAB
  0
TABLE
  2
LAYER
 70
1
  0
LAYER
  2
0
 70
64
 62
7
  6
continuous
  0
ENDTAB
  0
TABLE
  2
STYLE
 70
1
  0
STYLE
  2
STANDARD
 70
0
 40
0
 41
1.0
 50
0.0
 71
0
 42
1
 3
ARIAL.TTF
 4

  0
ENDTAB
  0
TABLE
  2
VIEW
 70
0
  0
ENDTAB
  0
ENDSEC
  0
SECTION
  2
BLOCKS
  0
BLOCK
  8
0
  2
SHAPE2DVIEW
 70
0
 10
0.0
 20
0.0
 30
0.0
  3
SHAPE2DVIEW
  0
ARC
  8
0
 62
0
 10
15.000000436012055
 20
14.999999999900524
 30
0.0
 40
3.649999999999931
 50
63.998692944230115
 51
116.00130705702703
  0
LINE
  8
0
 62
0
 10
16.600129959783498
 20
18.28056176690893
 30
0.0
 11
18.13592984796203
 21
19.518400903235715
 31
0.0
  0
ARC
  8
0
 62
0
 10
15.000000436012055
 20
14.999999999900524
 30
0.0
 40
5.499999999990289
 50
34.99998821651184
 51
55.23798963862788
  0
LINE
  8
0
 62
0
 10
19.505337328384666
 20
18.1546694732549
 30
0.0
 11
18.28056216752402
 21
16.600129596442912
 31
0.0
  0
ARC
  8
0
 62
0
 10
15.000000436012055
 20
14.999999999900524
 30
0.0
 40
3.649999999984388
 50
-26.00130832561497
 51
26.001308326742667
  0
LINE
  8
0
 62
0
 10
18.28056216754221
 20
13.39987040342919
 30
0.0
 11
19.505337328471068
 21
11.845330526654152
 31
0.0
  0
ARC
  8
0
 62
0
 10
15.000000436012055
 20
14.999999999900524
 30
0.0
 40
5.500000000000061
 50
-55.23798963737286
 51
-34.99998821507389
  0
LINE
  8
0
 62
0
 10
18.135929848060936
 20
10.481599096634113
 30
0.0
 11
16.600129959854552
 21
11.719438232927928
 31
0.0
  0
ARC
  8
0
 62
0
 10
15.000000436012055
 20
14.999999999900524
 30
0.0
 40
3.650000000000374
 50
-116.00130705562216
 51
-63.99869294298124
  0
LINE
  8
0
 62
0
 10
13.399870912249138
 20
11.719438232888137
 30
0.0
 11
11.864071024060376
 21
10.481599096564764
 31
0.0
  0
ARC
  8
0
 62
0
 10
15.000000436012055
 20
14.999999999900524
 30
0.0
 40
5.499999999990736
 50
-145.00001178349694
 51
-124.76201036138336
  0
LINE
  8
0
 62
0
 10
10.49466354363717
 20
11.845330526545581
 30
0.0
 11
11.719438704497813
 21
13.399870403358705
 31
0.0
  0
ARC
  8
0
 62
0
 10
15.000000436012055
 20
14.999999999900524
 30
0.0
 40
3.649999999984833
 50
153.9986916743887
 51
-153.998691673281
  0
LINE
  8
0
 62
0
 10
11.719438704480194
 20
16.600129596372426
 30
0.0
 11
10.494663543551903
 21
18.1546694731486
 31
0.0
  0
ARC
  8
0
 62
0
 10
15.000000436012055
 20
14.999999999900524
 30
0.0
 40
5.49999999999917
 50
124.76201036263348
 51
145.00001178491837
  0
LINE
  8
0
 62
0
 10
11.864071023962037
 20
19.518400903167503
 30
0.0
 11
13.399870912168419
 21
18.280561766874257
 31
0.0
  0
ARC
  8
0
 62
0
 10
27.700001535725686
 20
4.500000374138722
 30
0.0
 40
0.999999990442202
 50
-8.537736462515939e-07
 51
90.00000054826454
  0
LINE
  8
0
 62
0
 10
28.700001526167128
 20
4.5000003645498055
 30
0.0
 11
28.700001526191002
 21
2.299999601606828
 31
0.0
  0
ARC
  8
0
 62
0
 10
27.700001535750697
 20
2.2999995920383753
 30
0.0
 40
0.999999990441758
 50
-90.00000054373746
 51
8.537736462515939e-07
  0
LINE
  8
0
 62
0
 10
27.70000152626069
 20
1.2999996015969373
 30
0.0
 11
25.500000763259163
 21
1.2999996016145587
 31
0.0
  0
ARC
  8
0
 62
0
 10
25.50000075367934
 20
2.299999591985511
 30
0.0
 40
0.999999990370259
 50
179.99999914622634
 51
-89.99999945111666
  0
LINE
  8
0
 62
0
 10
24.500000763308957
 20
2.2999996016034174
 30
0.0
 11
24.500000763285083
 21
4.500000364546963
 31
0.0
  0
ARC
  8
0
 62
0
 10
25.500000753725384
 20
4.500000374116553
 30
0.0
 40
0.99999999044087
 50
89.99999945636026
 51
-179.99999914622634
  0
LINE
  8
0
 62
0
 10
25.500000763213688
 20
5.500000364556854
 30
0.0
 11
27.700001526156665
 21
5.500000364581297
 31
0.0
  0
ARC
  8
0
 62
0
 10
4.500000118524962
 20
4.500000373885769
 30
0.0
 40
0.999999990442202
 50
-8.537736462515939e-07
 51
90.0000005481994
  0
LINE
  8
0
 62
0
 10
5.500000108967539
 20
4.500000364296852
 30
0.0
 11
5.500000108991413
 21
2.299999601353875
 31
0.0
  0
ARC
  8
0
 62
0
 10
4.500000118621596
 20
2.2999995917570004
 30
0.0
 40
0.999999990370259
 50
-90.00000054780857
 51
8.537736462515939e-07
  0
LINE
  8
0
 62
0
 10
4.500000109060533
 20
1.2999996013860518
 30
0.0
 11
2.299999346118124
 21
1.2999996013212503
 31
0.0
  0
ARC
  8
0
 62
0
 10
2.29999933655024
 20
2.299999591763253
 30
0.0
 40
0.999999990442646
 50
179.99999914622634
 51
-89.99999945180062
  0
LINE
  8
0
 62
0
 10
1.2999993461070964
 20
2.2999996013084
 30
0.0
 11
1.2999993460832222
 21
4.5000003642945785
 31
0.0
  0
ARC
  8
0
 62
0
 10
2.2999993364530376
 20
4.500000373893158
 30
0.0
 40
0.999999990370259
 50
89.9999994521263
 51
-179.99999914622634
  0
LINE
  8
0
 62
0
 10
2.2999993460152375
 20
5.500000364262405
 30
0.0
 11
4.500000108957078
 21
5.5000003643283435
 31
0.0
  0
ARC
  8
0
 62
0
 10
2.2999993362972866
 20
25.4999996256646
 30
0.0
 40
0.99999999044309
 50
179.99999914622634
 51
-89.99999945176805
  0
LINE
  8
0
 62
0
 10
1.2999993458541432
 20
25.499999635250674
 30
0.0
 11
1.299999345830269
 21
27.70000039819365
 31
0.0
  0
ARC
  8
0
 62
0
 10
2.2999993362000843
 20
27.70000040779223
 30
0.0
 40
0.999999990370259
 50
89.9999994521263
 51
-179.99999914622634
  0
LINE
  8
0
 62
0
 10
2.2999993457622843
 20
28.700000398161478
 30
0.0
 11
4.500000108704125
 21
28.700000398228553
 31
0.0
  0
ARC
  8
0
 62
0
 10
4.500000118272009
 20
27.70000040778484
 30
0.0
 40
0.999999990442202
 50
-8.537736462515939e-07
 51
90.0000005481994
  0
LINE
  8
0
 62
0
 10
5.500000108714582
 20
27.700000398239126
 30
0.0
 11
5.5000001087384565
 21
25.499999635254653
 31
0.0
  0
ARC
  8
0
 62
0
 10
4.500000118367506
 20
25.49999962565721
 30
0.0
 40
0.999999990371147
 50
-90.00000054771087
 51
8.537736462515939e-07
  0
LINE
  8
0
 62
0
 10
4.500000108808148
 20
24.49999963528512
 30
0.0
 11
2.2999993458657393
 21
24.49999963522032
 31
0.0
  0
ARC
  8
0
 62
0
 10
25.500000753497442
 20
25.49999962591528
 30
0.0
 40
0.999999990442202
 50
179.99999914622634
 51
-89.99999945180062
  0
LINE
  8
0
 62
0
 10
24.500000763056004
 20
25.49999963550306
 30
0.0
 11
24.50000076303213
 21
27.700000398446036
 31
0.0
  0
ARC
  8
0
 62
0
 10
25.500000753402514
 20
27.700000408045184
 30
0.0
 40
0.999999990369815
 50
89.99999945235429
 51
-179.99999914622634
  0
LINE
  8
0
 62
0
 10
25.500000762960735
 20
28.700000398416137
 30
0.0
 11
27.700001525903712
 21
28.700000398481507
 31
0.0
  0
ARC
  8
0
 62
0
 10
27.700001535472733
 20
27.700000408037795
 30
0.0
 40
0.999999990442646
 50
-8.537736462515939e-07
 51
90.00000054826454
  0
LINE
  8
0
 62
0
 10
28.700001525914168
 20
27.70000039849208
 30
0.0
 11
28.700001525938042
 21
25.499999635507606
 31
0.0
  0
ARC
  8
0
 62
0
 10
27.700001535567093
 20
25.499999625910164
 30
0.0
 40
0.999999990371147
 50
-90.0000005476783
 51
8.537736462515939e-07
  0
LINE
  8
0
 62
0
 10
27.700001526008304
 20
24.499999635538074
 30
0.0
 11
25.500000763065326
 21
24.499999635472705
 31
0.0
  0
LINE
  8
0
 62
0
 10
30.00000043582845
 20
28.000000000043315
 30
0.0
 11
30.000000436008644
 21
19.699999564217023
 31
0.0
  0
ARC
  8
0
 62
0
 10
29.800000436008826
 20
19.69999956421475
 30
0.0
 40
0.20000000000131
 50
-90.00000002279822
 51
0.0
  0
LINE
  8
0
 62
0
 10
29.800000435929245
 20
19.499999564213226
 30
0.0
 11
29.500000435965898
 21
19.49999956433203
 31
0.0
  0
LINE
  8
0
 62
0
 10
29.500000435965898
 20
19.49999956433203
 30
0.0
 11
29.500000435962487
 21
19.200000373658668
 31
0.0
  0
ARC
  8
0
 62
0
 10
29.30000006236669
 20
19.20000037365469
 30
0.0
 40
0.200000373597131
 50
-89.99999999967432
 51
0.0
  0
LINE
  8
0
 62
0
 10
29.300000062367825
 20
19.00000000005832
 30
0.0
 11
28.29999967305839
 21
19.00000000002251
 31
0.0
  0
ARC
  8
0
 62
0
 10
28.299999673037927
 20
19.500000000022055
 30
0.0
 40
0.499999999999279
 50
-180.0
 51
-89.99999999765504
  0
LINE
  8
0
 62
0
 10
27.799999673041224
 20
19.50000000001978
 30
0.0
 11
27.799999673027013
 21
22.7500003271399
 31
0.0
  0
ARC
  8
0
 62
0
 10
27.2999996730269
 20
22.750000327134217
 30
0.0
 40
0.500000000000167
 50
0.0
 51
90.00000000058624
  0
LINE
  8
0
 62
0
 10
27.299999673021784
 20
23.250000327135467
 30
0.0
 11
25.256944926991036
 21
23.2500003271133
 31
0.0
  0
ARC
  8
0
 62
0
 10
25.256944926998425
 20
22.750000327109774
 30
0.0
 40
0.500000000003275
 50
90.0000000008468
 51
134.96839843334448
  0
LINE
  8
0
 62
0
 10
24.903586593032696
 20
23.1037486667816
 30
0.0
 11
21.146642102004034
 21
19.350946187530553
 31
0.0
  0
ARC
  8
0
 62
0
 10
21.500000435972037
 20
18.997197847860434
 30
0.0
 40
0.500000000002831
 50
134.96839843366712
 51
-180.0
  0
LINE
  8
0
 62
0
 10
21.000000435967944
 20
18.997197847855887
 30
0.0
 11
21.000000436000914
 21
15.953190145272629
 31
0.0
  0
ARC
  8
0
 62
0
 10
20.800000436004506
 20
15.953190145268081
 30
0.0
 40
0.199999999995093
 50
-29.786255757546243
 51
0.0
  0
LINE
  8
0
 62
0
 10
20.97357736472959
 20
15.85383698823648
 30
0.0
 11
20.541720716992995
 21
15.099353156998063
 31
0.0
  0
ARC
  8
0
 62
0
 10
20.7152976457249
 20
14.999999999963052
 30
0.0
 40
0.200000000003087
 50
150.21374424257672
 51
-150.2137442412031
  0
LINE
  8
0
 62
0
 10
20.5417207169947
 20
14.900646842923493
 30
0.0
 11
20.973577364748348
 21
14.146163011697013
 31
0.0
  0
ARC
  8
0
 62
0
 10
20.800000436025538
 20
14.046809854657454
 30
0.0
 40
0.199999999995093
 50
0.0
 51
29.786255759848487
  0
LINE
  8
0
 62
0
 10
21.000000436021946
 20
14.046809854659728
 30
0.0
 11
21.000000436054915
 21
11.002802152075901
 31
0.0
  0
ARC
  8
0
 62
0
 10
21.500000436059008
 20
11.002802152081586
 30
0.0
 40
0.500000000002831
 50
-180.0
 51
-134.96839843256143
  0
LINE
  8
0
 62
0
 10
21.146642102098962
 20
10.649053812405782
 30
0.0
 11
24.90358659320948
 21
6.896251333235451
 31
0.0
  0
ARC
  8
0
 62
0
 10
25.25694492716725
 20
7.249999672915237
 30
0.0
 40
0.500000000001943
 50
-134.968398432055
 51
-89.99999999960917
  0
LINE
  8
0
 62
0
 10
25.25694492717066
 20
6.749999672912281
 30
0.0
 11
27.299999673198
 21
6.74999967293445
 31
0.0
  0
ARC
  8
0
 62
0
 10
27.299999673194588
 20
7.249999672933427
 30
0.0
 40
0.499999999999723
 50
-89.99999999960917
 51
0.0
  0
LINE
  8
0
 62
0
 10
27.799999673193565
 20
7.2499996729430904
 30
0.0
 11
27.799999673139563
 21
10.500000000060936
 31
0.0
  0
ARC
  8
0
 62
0
 10
28.299999673139677
 20
10.500000000068326
 30
0.0
 40
0.500000000000167
 50
89.99999999934862
 51
-180.0
  0
LINE
  8
0
 62
0
 10
28.29999967314536
 20
11.000000000069576
 30
0.0
 11
29.300000062454796
 21
11.00000000005366
 31
0.0
  0
ARC
  8
0
 62
0
 10
29.300000062458206
 20
10.799999626457861
 30
0.0
 40
0.200000373596687
 50
0.0
 51
90.00000000097707
  0
LINE
  8
0
 62
0
 10
29.500000436054005
 20
10.79999962645843
 30
0.0
 11
29.500000435988067
 21
10.500000435761194
 31
0.0
  0
LINE
  8
0
 62
0
 10
29.500000435988067
 20
10.500000435761194
 30
0.0
 11
29.80000043601167
 21
10.500000435910692
 31
0.0
  0
ARC
  8
0
 62
0
 10
29.800000436111144
 20
10.300000435909169
 30
0.0
 40
0.20000000000131
 50
-0.0
 51
90.00000002849777
  0
LINE
  8
0
 62
0
 10
30.000000436110962
 20
10.300000435909169
 30
0.0
 11
30.000000436110962
 21
2.0000000000840146
 31
0.0
  0
ARC
  8
0
 62
0
 10
28.000000436111645
 20
2.000000000084583
 30
0.0
 40
1.99999999999978
 50
-89.99999999876238
 51
-0.0
  0
LINE
  8
0
 62
0
 10
28.000000436154846
 20
8.469669410260394e-11
 30
0.0
 11
19.700000000327986
 21
-9.606537787476555e-11
 31
0.0
  0
ARC
  8
0
 62
0
 10
19.700000000324575
 20
0.19999999990432116
 30
0.0
 40
0.199999999999978
 50
180.0
 51
-89.99999999902293
  0
LINE
  8
0
 62
0
 10
19.500000000324757
 20
0.19999999998276508
 30
0.0
 11
19.500000000441855
 21
0.4999999999472493
 31
0.0
  0
LINE
  8
0
 62
0
 10
19.500000000441855
 20
0.4999999999472493
 30
0.0
 11
19.2000008097702
 21
0.4999999999483862
 31
0.0
  0
ARC
  8
0
 62
0
 10
19.200000809767356
 20
0.7000003735447535
 30
0.0
 40
0.200000373597575
 50
-180.0
 51
-89.99999999918577
  0
LINE
  8
0
 62
0
 10
19.000000436169284
 20
0.7000003735447535
 30
0.0
 11
19.000000436132336
 21
1.7000007628536196
 31
0.0
  0
ARC
  8
0
 62
0
 10
19.50000043613245
 20
1.7000007628718095
 30
0.0
 40
0.500000000000167
 50
90.00000000013027
 51
-180.0
  0
LINE
  8
0
 62
0
 10
19.500000436131312
 20
2.200000762871923
 30
0.0
 11
22.750000763249727
 21
2.2000007628855656
 31
0.0
  0
ARC
  8
0
 62
0
 10
22.750000763244042
 20
2.7000007628856793
 30
0.0
 40
0.500000000000167
 50
-89.99999999934862
 51
0.0
  0
LINE
  8
0
 62
0
 10
23.25000076324643
 20
2.700000762890795
 30
0.0
 11
23.250000763221987
 21
4.743055508920975
 31
0.0
  0
ARC
  8
0
 62
0
 10
22.750000763221305
 20
4.743055508915859
 30
0.0
 40
0.500000000001943
 50
0.0
 51
44.96839843325225
  0
LINE
  8
0
 62
0
 10
23.103749102891992
 20
5.096413842879315
 30
0.0
 11
19.350946623640944
 21
8.853358333907408
 31
0.0
  0
ARC
  8
0
 62
0
 10
18.99719828396969
 20
8.499999999941679
 30
0.0
 40
0.500000000002831
 50
44.968398433390774
 51
90.00000000039083
  0
LINE
  8
0
 62
0
 10
18.99719828396628
 20
8.999999999944066
 30
0.0
 11
15.953190581381886
 21
8.999999999911097
 31
0.0
  0
ARC
  8
0
 62
0
 10
15.953190581382454
 20
9.199999999916031
 30
0.0
 40
0.200000000004863
 50
-119.78625575780629
 51
-90.00000000016284
  0
LINE
  8
0
 62
0
 10
15.8538374243446
 20
9.026423071181853
 30
0.0
 11
15.099353593109594
 21
9.458279718919016
 31
0.0
  0
ARC
  8
0
 62
0
 10
15.000000436074014
 20
9.284702790187112
 30
0.0
 40
0.200000000003531
 50
60.213744242435226
 51
119.78625575887773
  0
LINE
  8
0
 62
0
 10
14.900647279034455
 20
9.458279718916742
 30
0.0
 11
14.146163447806838
 21
9.026423071163094
 31
0.0
  0
ARC
  8
0
 62
0
 10
14.046810290766711
 20
9.199999999894999
 30
0.0
 40
0.200000000004863
 50
-89.99999999902293
 51
-60.21374424130472
  0
LINE
  8
0
 62
0
 10
14.046810290770122
 20
8.999999999890065
 30
0.0
 11
11.002802588185727
 21
8.999999999857096
 31
0.0
  0
ARC
  8
0
 62
0
 10
11.002802588193116
 20
8.499999999854708
 30
0.0
 40
0.500000000002831
 50
90.0000000008468
 51
135.03160156785285
  0
LINE
  8
0
 62
0
 10
10.64905424851447
 20
8.85335833381248
 30
0.0
 11
6.896251769344708
 21
5.096413842702532
 31
0.0
  0
ARC
  8
0
 62
0
 10
7.250000109025631
 20
4.743055508745897
 30
0.0
 40
0.500000000002831
 50
135.03160156812905
 51
-180.0
  0
LINE
  8
0
 62
0
 10
6.750000109023244
 20
4.7430555087413495
 30
0.0
 11
6.750000109045413
 21
2.7000007627128753
 31
0.0
  0
ARC
  8
0
 62
0
 10
7.250000109045526
 20
2.7000007627185596
 30
0.0
 40
0.500000000000167
 50
-180.0
 51
-89.99999999908808
  0
LINE
  8
0
 62
0
 10
7.2500001090534845
 20
2.200000762718446
 30
0.0
 11
10.50000043617133
 21
2.200000762773584
 31
0.0
  0
ARC
  8
0
 62
0
 10
10.50000043617872
 20
1.7000007627723335
 30
0.0
 40
0.500000000000611
 50
-0.0
 51
90.0000000008468
  0
LINE
  8
0
 62
0
 10
11.000000436179402
 20
1.7000007627666491
 30
0.0
 11
11.000000436166896
 21
0.7000003734577831
 31
0.0
  0
ARC
  8
0
 62
0
 10
10.800000062568255
 20
0.7000003734555094
 30
0.0
 40
0.200000373597131
 50
-89.99999999951147
 51
0.0
  0
LINE
  8
0
 62
0
 10
10.80000006256996
 20
0.49999999985686827
 30
0.0
 11
10.500000871872157
 21
0.4999999999239435
 31
0.0
  0
LINE
  8
0
 62
0
 10
10.500000871872157
 20
0.4999999999239435
 30
0.0
 11
10.50000087201995
 21
0.19999999990034212
 31
0.0
  0
ARC
  8
0
 62
0
 10
10.300000872020131
 20
0.1999999998002977
 30
0.0
 40
0.199999999999534
 50
-89.99999999934862
 51
0.0
  0
LINE
  8
0
 62
0
 10
10.300000872022405
 20
-1.9838353182421997e-10
 30
0.0
 11
2.0000004361944086
 21
-1.9838353182421997e-10
 31
0.0
  0
ARC
  8
0
 62
0
 10
2.000000436194977
 20
1.9999999998015028
 30
0.0
 40
2.000000000000224
 50
-180.0
 51
-90.00000000001629
  0
LINE
  8
0
 62
0
 10
4.3619509071390894e-07
 20
1.999999999757165
 30
0.0
 11
4.3601376020774296e-07
 21
10.30000043558232
 31
0.0
  0
ARC
  8
0
 62
0
 10
0.2000004360135783
 20
10.300000435589709
 30
0.0
 40
0.19999999999909
 50
89.99999997736462
 51
-180.0
  0
LINE
  8
0
 62
0
 10
0.20000043609259066
 20
10.50000043558839
 30
0.0
 11
0.5000004360570749
 21
10.500000435471293
 31
0.0
  0
LINE
  8
0
 62
0
 10
0.5000004360570749
 20
10.500000435471293
 30
0.0
 11
0.5000004360587802
 21
10.799999626142949
 31
0.0
  0
ARC
  8
0
 62
0
 10
0.7000008096568529
 20
10.79999962614636
 30
0.0
 40
0.200000373596687
 50
90.00000000032568
 51
-180.0
  0
LINE
  8
0
 62
0
 10
0.700000809655716
 20
10.999999999742158
 30
0.0
 11
1.7000011989634451
 21
10.999999999779106
 31
0.0
  0
ARC
  8
0
 62
0
 10
1.700001198982772
 20
10.49999999978013
 30
0.0
 40
0.499999999999723
 50
0.0
 51
90.00000000221468
  0
LINE
  8
0
 62
0
 10
2.200001198982317
 20
10.499999999781267
 30
0.0
 11
2.200001198995391
 21
7.249999672661147
 31
0.0
  0
ARC
  8
0
 62
0
 10
2.700001198995505
 20
7.249999672666831
 30
0.0
 40
0.500000000000167
 50
-180.0
 51
-89.99999999934862
  0
LINE
  8
0
 62
0
 10
2.700001199001189
 20
6.749999672666718
 30
0.0
 11
4.743055945031369
 21
6.749999672688887
 31
0.0
  0
ARC
  8
0
 62
0
 10
4.743055945025684
 20
7.2499996726918425
 30
0.0
 40
0.500000000001943
 50
-89.99999999934862
 51
-45.031601566793384
  0
LINE
  8
0
 62
0
 10
5.096414278989709
 20
6.896251333020018
 30
0.0
 11
8.85335877001894
 21
10.6490538122722
 31
0.0
  0
ARC
  8
0
 62
0
 10
8.500000436051504
 20
11.002802151940045
 30
0.0
 40
0.500000000002831
 50
-45.03160156619484
 51
0.0
  0
LINE
  8
0
 62
0
 10
9.000000436055029
 20
11.002802151945161
 30
0.0
 11
9.00000043602206
 21
14.046809854528988
 31
0.0
  0
ARC
  8
0
 62
0
 10
9.200000436029267
 20
14.046809854528988
 30
0.0
 40
0.200000000008416
 50
150.21374424259793
 51
-180.0
  0
LINE
  8
0
 62
0
 10
9.026423507292247
 20
14.146163011566841
 30
0.0
 11
9.458280155028842
 21
14.900646842802985
 31
0.0
  0
ARC
  8
0
 62
0
 10
9.284703226298074
 20
14.999999999839702
 30
0.0
 40
0.200000000001754
 50
-29.786255758009187
 51
29.786255758534345
  0
LINE
  8
0
 62
0
 10
9.458280155027136
 20
15.099353156877555
 30
0.0
 11
9.026423507273488
 21
15.853836988106309
 31
0.0
  0
ARC
  8
0
 62
0
 10
9.200000436004824
 20
15.953190145145868
 30
0.0
 40
0.200000000003975
 50
-180.0
 51
-150.21374424136496
  0
LINE
  8
0
 62
0
 10
9.000000436001027
 20
15.953190145141889
 30
0.0
 11
9.000000435968058
 21
18.997197847725147
 31
0.0
  0
ARC
  8
0
 62
0
 10
8.500000435964534
 20
18.997197847718894
 30
0.0
 40
0.500000000002831
 50
0.0
 51
45.03160156766846
  0
LINE
  8
0
 62
0
 10
8.85335876992401
 20
19.35094618739697
 30
0.0
 11
5.096414278812924
 21
23.10374866656616
 31
0.0
  0
ARC
  8
0
 62
0
 10
4.743055944857996
 20
22.750000326888653
 30
0.0
 40
0.500000000000167
 50
45.03160156799133
 51
90.00000000058624
  0
LINE
  8
0
 62
0
 10
4.74305594485288
 20
23.250000326889904
 30
0.0
 11
2.700001198824406
 21
23.250000326867735
 31
0.0
  0
ARC
  8
0
 62
0
 10
2.700001198829522
 20
22.75000032686762
 30
0.0
 40
0.499999999999723
 50
90.00000000058624
 51
-180.0
  0
LINE
  8
0
 62
0
 10
2.2000011988294084
 20
22.750000326858526
 30
0.0
 11
2.2000011988817043
 21
19.499999999740112
 31
0.0
  0
ARC
  8
0
 62
0
 10
1.700001198882159
 20
19.499999999734428
 30
0.0
 40
0.500000000000167
 50
-90.00000000065138
 51
0.0
  0
LINE
  8
0
 62
0
 10
1.7000011988764747
 20
18.999999999733177
 30
0.0
 11
0.7000008095687456
 21
18.99999999974682
 31
0.0
  0
ARC
  8
0
 62
0
 10
0.7000008095659034
 20
19.200000373343187
 30
0.0
 40
0.200000373597131
 50
-180.0
 51
-89.99999999918577
  0
LINE
  8
0
 62
0
 10
0.5000004359672623
 20
19.200000373343187
 30
0.0
 11
0.5000004360354744
 21
19.49999956404099
 31
0.0
  0
LINE
  8
0
 62
0
 10
0.5000004360354744
 20
19.49999956404099
 30
0.0
 11
0.20000043601073614
 21
19.499999563890924
 31
0.0
  0
ARC
  8
0
 62
0
 10
0.2000004359118286
 20
19.699999563890742
 30
0.0
 40
0.199999999999978
 50
-180.0
 51
-89.99999997166508
  0
LINE
  8
0
 62
0
 10
4.359114420537935e-07
 20
19.699999563890174
 30
0.0
 11
4.359114420537935e-07
 21
27.999999999716465
 31
0.0
  0
ARC
  8
0
 62
0
 10
2.000000435911897
 20
27.999999999717033
 30
0.0
 40
1.99999999999978
 50
90.00000000127018
 51
-180.0
  0
LINE
  8
0
 62
0
 10
2.000000435867559
 20
29.99999999971692
 30
0.0
 11
10.300000871695556
 21
29.99999999989882
 31
0.0
  0
ARC
  8
0
 62
0
 10
10.30000087169783
 20
29.799999999897864
 30
0.0
 40
0.200000000000866
 50
-0.0
 51
90.00000000065138
  0
LINE
  8
0
 62
0
 10
10.500000871697647
 20
29.79999999981942
 30
0.0
 11
10.500000871581687
 21
29.499999999856072
 31
0.0
  0
LINE
  8
0
 62
0
 10
10.500000871581687
 20
29.499999999856072
 30
0.0
 11
10.800000062253911
 21
29.499999999852662
 31
0.0
  0
ARC
  8
0
 62
0
 10
10.800000062256753
 20
29.299999626256863
 30
0.0
 40
0.200000373597131
 50
-0.0
 51
90.00000000081423
  0
LINE
  8
0
 62
0
 10
11.00000043585312
 20
29.299999626256863
 30
0.0
 11
11.0000004358895
 21
28.299999236948565
 31
0.0
  0
ARC
  8
0
 62
0
 10
10.500000435889955
 20
28.29999923692924
 30
0.0
 40
0.499999999999279
 50
-89.99999999980459
 51
0.0
  0
LINE
  8
0
 62
0
 10
10.50000043589166
 20
27.79999923693026
 30
0.0
 11
7.2500001087721095
 21
27.79999923691662
 31
0.0
  0
ARC
  8
0
 62
0
 10
7.250000108777794
 20
27.299999236916506
 30
0.0
 40
0.500000000000167
 50
90.00000000065138
 51
-180.0
  0
LINE
  8
0
 62
0
 10
6.75000010877768
 20
27.29999923691082
 30
0.0
 11
6.750000108799849
 21
25.256944490880073
 31
0.0
  0
ARC
  8
0
 62
0
 10
7.2500001088022366
 20
25.256944490886326
 30
0.0
 40
0.500000000002831
 50
-180.0
 51
-135.0316015668856
  0
LINE
  8
0
 62
0
 10
6.896251769130412
 20
24.90358615692344
 30
0.0
 11
10.649054248380887
 21
21.146641665894776
 31
0.0
  0
ARC
  8
0
 62
0
 10
11.002802588051576
 20
21.49999999985937
 30
0.0
 40
0.500000000002387
 50
-135.03160156665533
 51
-89.99999999934862
  0
LINE
  8
0
 62
0
 10
11.00280258805726
 20
20.99999999985755
 30
0.0
 11
14.046810290639382
 21
20.99999999989052
 31
0.0
  0
ARC
  8
0
 62
0
 10
14.04681029064336
 20
20.799999999897523
 30
0.0
 40
0.199999999992872
 50
60.213744241706266
 51
90.00000000113991
  0
LINE
  8
0
 62
0
 10
14.146163447676667
 20
20.973576928620332
 30
0.0
 11
14.900647278913379
 21
20.541720280882032
 31
0.0
  0
ARC
  8
0
 62
0
 10
15.000000435949527
 20
20.71529720961223
 30
0.0
 40
0.200000000000422
 50
-119.78625575794855
 51
-60.21374424102109
  0
LINE
  8
0
 62
0
 10
15.099353592988518
 20
20.541720280884306
 30
0.0
 11
15.85383742421443
 21
20.97357692863909
 31
0.0
  0
ARC
  8
0
 62
0
 10
15.953190581252851
 20
20.799999999918555
 30
0.0
 40
0.199999999992873
 50
90.00000000048853
 51
119.78625575988927
  0
LINE
  8
0
 62
0
 10
15.953190581251146
 20
20.99999999991155
 30
0.0
 11
18.99719828383554
 21
20.99999999994452
 31
0.0
  0
ARC
  8
0
 62
0
 10
18.99719828382815
 20
21.49999999994691
 30
0.0
 40
0.500000000002831
 50
-89.9999999991532
 51
-44.96839843214717
  0
LINE
  8
0
 62
0
 10
19.350946623507365
 20
21.146641665988568
 30
0.0
 11
23.103749102676556
 21
24.90358615710022
 31
0.0
  0
ARC
  8
0
 62
0
 10
22.75000076299791
 20
25.25694449105515
 30
0.0
 40
0.500000000001943
 50
-44.96839843191682
 51
0.0
  0
LINE
  8
0
 62
0
 10
23.250000762998592
 20
25.2569444910597
 30
0.0
 11
23.250000762976423
 21
27.299999237088173
 31
0.0
  0
ARC
  8
0
 62
0
 10
22.75000076297631
 20
27.299999237083057
 30
0.0
 40
0.500000000000167
 50
0.0
 51
90.0000000008468
  0
LINE
  8
0
 62
0
 10
22.75000076296892
 20
27.79999923708317
 30
0.0
 11
19.50000043585221
 21
27.7999992370286
 31
0.0
  0
ARC
  8
0
 62
0
 10
19.500000435843116
 20
28.299999237028715
 30
0.0
 40
0.500000000000611
 50
180.0
 51
-89.99999999895779
  0
LINE
  8
0
 62
0
 10
19.000000435843003
 20
28.299999237035536
 30
0.0
 11
19.000000435857782
 21
29.299999626343833
 31
0.0
  0
ARC
  8
0
 62
0
 10
19.200000809455855
 20
29.29999962634838
 30
0.0
 40
0.200000373597131
 50
90.00000000032568
 51
-180.0
  0
LINE
  8
0
 62
0
 10
19.200000809454718
 20
29.49999999994418
 30
0.0
 11
19.50000000014968
 21
29.49999999987824
 31
0.0
  0
LINE
  8
0
 62
0
 10
19.50000000014968
 20
29.49999999987824
 30
0.0
 11
19.500000000002455
 21
29.799999999901274
 31
0.0
  0
ARC
  8
0
 62
0
 10
19.700000000002273
 20
29.800000000000182
 30
0.0
 40
0.199999999999978
 50
90.00000000065138
 51
-180.0
  0
LINE
  8
0
 62
0
 10
19.7
 20
30.0
 30
0.0
 11
28.000000435827996
 21
30.0
 31
0.0
  0
ARC
  8
0
 62
0
 10
28.000000435828564
 20
28.000000000000114
 30
0.0
 40
1.99999999999978
 50
0.0
 51
90.00000000001629
  0
ENDBLK
  0
ENDSEC
  0
SECTION
  2
ENTITIES
  0
INSERT
  2
SHAPE2DVIEW
  8
0
 62
0
 10
0.0
 20
0.0
 30
0.0
  0
ENDSEC
  0
EOF
