  0
SECTION
  2
HEADER
  9
$ACADVER
  1
AC1009
  9
$INSBASE
 10
0.0
 20
0.0
 30
0.0
  9
$EXTMIN
 10
0.0
 20
0.0
 30
0.0
  9
$EXTMAX
 10
0.0
 20
0.0
 30
0.0
  0
ENDSEC
  0
SECTION
  2
TABLES
  0
TABLE
  2
VPORT
 70
0
  0
ENDTAB
  0
TABLE
  2
LTYPE
 70
1
  0
LTYPE
  2
CONTINUOUS
 70
0
  3
Solid line
 72
65
 73
0
 40
0.0
  0
ENDTAB
  0
TABLE
  2
LAYER
 70
1
  0
LAYER
  2
0
 70
64
 62
7
  6
continuous
  0
ENDTAB
  0
TABLE
  2
STYLE
 70
1
  0
STYLE
  2
STANDARD
 70
0
 40
0
 41
1.0
 50
0.0
 71
0
 42
1
 3
ARIAL.TTF
 4

  0
ENDTAB
  0
TABLE
  2
VIEW
 70
0
  0
ENDTAB
  0
ENDSEC
  0
SECTION
  2
BLOCKS
  0
BLOCK
  8
0
  2
SHAPE2DVIEW
 70
0
 10
0.0
 20
0.0
 30
0.0
  3
SHAPE2DVIEW
  0
ARC
  8
0
 62
0
 10
36.995534228446175
 20
9.650306182044233
 30
0.0
 40
1.500000000004498
 50
-45.00000099927309
 51
-8.537736462515939e-07
  0
LINE
  8
0
 62
0
 10
38.056194381730116
 20
8.58964599176318
 30
0.0
 11
35.53934022845937
 21
6.07279218203303
 31
0.0
  0
ARC
  8
0
 62
0
 10
36.600000314341244
 20
5.0121320961454785
 30
0.0
 40
1.499999878523894
 50
134.99999999984666
 51
-180.0
  0
LINE
  8
0
 62
0
 10
35.10000043581699
 20
5.012132096143205
 30
0.0
 11
35.10000043585109
 21
3.150000096142662
 31
0.0
  0
ARC
  8
0
 62
0
 10
33.60000043585076
 20
3.150000096142662
 30
0.0
 40
1.499999999999168
 50
-90.0
 51
-0.0
  0
LINE
  8
0
 62
0
 10
33.60000043585076
 20
1.650000096143458
 30
0.0
 11
26.400000435849915
 21
1.6500000961423211
 31
0.0
  0
ARC
  8
0
 62
0
 10
26.400000435849915
 20
3.1500000961420938
 30
0.0
 40
1.499999999999168
 50
-180.0
 51
-90.0
  0
LINE
  8
0
 62
0
 10
24.900000435850142
 20
3.1500000961420938
 30
0.0
 11
24.90000043588311
 21
5.012132096142636
 31
0.0
  0
ARC
  8
0
 62
0
 10
23.400000557363978
 20
5.012132096148889
 30
0.0
 40
1.499999878518565
 50
-0.0
 51
45.00000000021504
  0
LINE
  8
0
 62
0
 10
24.46066064323959
 20
6.072792182032458
 30
0.0
 11
21.943806489983057
 21
8.589645991750103
 31
0.0
  0
ARC
  8
0
 62
0
 10
23.004466643244836
 20
9.650306182040822
 30
0.0
 40
1.499999999995615
 50
-179.99999914622634
 51
-134.99999899986724
  0
LINE
  8
0
 62
0
 10
21.50446664325018
 20
9.650306155841122
 30
0.0
 11
21.50446664325018
 21
20.349693844221406
 31
0.0
  0
ARC
  8
0
 62
0
 10
23.004466643247678
 20
20.349693818044443
 30
0.0
 40
1.499999999997392
 50
134.99999900069642
 51
179.99999914622634
  0
LINE
  8
0
 62
0
 10
21.943806489969415
 20
21.41035400832095
 30
0.0
 11
24.460660643238448
 21
23.92720781805224
 31
0.0
  0
ARC
  8
0
 62
0
 10
23.40000055736
 20
24.987867903936944
 30
0.0
 40
1.499999878522119
 50
-45.00000000016889
 51
0.0
  0
LINE
  8
0
 62
0
 10
24.900000435881974
 20
24.98786790394206
 30
0.0
 11
24.900000435849005
 21
26.84999990394317
 31
0.0
  0
ARC
  8
0
 62
0
 10
26.400000435848778
 20
26.84999990394317
 30
0.0
 40
1.499999999999168
 50
90.0
 51
-180.0
  0
LINE
  8
0
 62
0
 10
26.400000435848778
 20
28.34999990394124
 30
0.0
 11
33.60000043584962
 21
28.34999990394408
 31
0.0
  0
ARC
  8
0
 62
0
 10
33.60000043584962
 20
26.84999990394374
 30
0.0
 40
1.499999999999168
 50
-0.0
 51
90.0
  0
LINE
  8
0
 62
0
 10
35.10000043584996
 20
26.84999990394374
 30
0.0
 11
35.10000043581585
 21
24.98786790394263
 31
0.0
  0
ARC
  8
0
 62
0
 10
36.600000314337834
 20
24.987867903937513
 30
0.0
 40
1.499999878522119
 50
180.0
 51
-134.9999999998619
  0
LINE
  8
0
 62
0
 10
35.539340228458244
 20
23.927207818052807
 30
0.0
 11
38.05619438171762
 21
21.410354008334593
 31
0.0
  0
ARC
  8
0
 62
0
 10
36.99553422845584
 20
20.34969381804501
 30
0.0
 40
1.499999999995615
 50
8.537736462515939e-07
 51
45.00000100010215
  0
LINE
  8
0
 62
0
 10
38.49553422844936
 20
20.34969384424187
 30
0.0
 11
38.49553422844936
 21
9.650306155842259
 31
0.0
  0
ARC
  8
0
 62
0
 10
45.00000043585517
 20
15.000000000042064
 30
0.0
 40
3.650000000006592
 50
153.9986929436267
 51
-153.9986929438104
  0
LINE
  8
0
 62
0
 10
41.7194386688587
 20
16.600129523850455
 30
0.0
 11
40.48159953254783
 21
18.135929412043765
 31
0.0
  0
ARC
  8
0
 62
0
 10
45.00000043585517
 20
15.000000000042064
 30
0.0
 40
5.500000000005834
 50
124.99998821574582
 51
145.23798963801977
  0
LINE
  8
0
 62
0
 10
41.845330962551955
 20
19.505336892469813
 30
0.0
 11
43.399870839337225
 21
18.280561731571083
 31
0.0
  0
ARC
  8
0
 62
0
 10
45.00000043585517
 20
15.000000000042064
 30
0.0
 40
3.649999999999486
 50
63.99869167400322
 51
116.00130832628045
  0
LINE
  8
0
 62
0
 10
46.60013003235606
 20
18.280561731577336
 30
0.0
 11
48.15466990916066
 21
19.505336892458445
 31
0.0
  0
ARC
  8
0
 62
0
 10
45.00000043585517
 20
15.000000000042064
 30
0.0
 40
5.499999999995176
 50
34.762010362049274
 51
55.000011784166915
  0
LINE
  8
0
 62
0
 10
49.5184013391517
 20
18.135929412044334
 30
0.0
 11
48.28056220284084
 21
16.600129523851024
 31
0.0
  0
ARC
  8
0
 62
0
 10
45.00000043585517
 20
15.000000000042064
 30
0.0
 40
3.649999999993269
 50
-26.00130705640754
 51
26.001307056455673
  0
LINE
  8
0
 62
0
 10
48.28056220284084
 20
13.399870476236515
 30
0.0
 11
49.518401339148866
 21
11.864070588043205
 31
0.0
  0
ARC
  8
0
 62
0
 10
45.00000043585517
 20
15.000000000042064
 30
0.0
 40
5.499999999995176
 50
-55.00001178433372
 51
-34.762010362037
  0
LINE
  8
0
 62
0
 10
48.15466990914588
 20
10.494663107618862
 30
0.0
 11
46.600130032362884
 21
11.719438268516456
 31
0.0
  0
ARC
  8
0
 62
0
 10
45.00000043585517
 20
15.000000000042064
 30
0.0
 40
3.649999999999486
 50
-116.0013083261917
 51
-63.99869167384043
  0
LINE
  8
0
 62
0
 10
43.39987083934518
 20
11.719438268516456
 30
0.0
 11
41.84533096254002
 21
10.494663107627389
 31
0.0
  0
ARC
  8
0
 62
0
 10
45.00000043585517
 20
15.000000000042064
 30
0.0
 40
5.500000000004946
 50
-145.23798963804705
 51
-124.99998821592574
  0
LINE
  8
0
 62
0
 10
40.48159953254897
 20
11.864070588044342
 30
0.0
 11
41.71943866885415
 21
13.399870476244473
 31
0.0
  0
ARC
  8
0
 62
0
 10
15.000000435847209
 20
15.00000000004377
 30
0.0
 40
3.650000000002151
 50
-26.001307056261066
 51
26.00130705635277
  0
LINE
  8
0
 62
0
 10
18.28056220284368
 20
13.399870476243336
 30
0.0
 11
19.518401339151705
 21
11.8640705880415
 31
0.0
  0
ARC
  8
0
 62
0
 10
15.000000435847209
 20
15.00000000004377
 30
0.0
 40
5.499999999992511
 50
-55.00001178411013
 51
-34.762010362002
  0
LINE
  8
0
 62
0
 10
18.154669909154972
 20
10.494663107633642
 30
0.0
 11
16.60013003235549
 21
11.71943826851134
 31
0.0
  0
ARC
  8
0
 62
0
 10
15.000000435847209
 20
15.00000000004377
 30
0.0
 40
3.649999999985276
 50
-116.00130832614194
 51
-63.99869167387938
  0
LINE
  8
0
 62
0
 10
13.39987083934518
 20
11.719438268527256
 30
0.0
 11
11.84533096255252
 21
10.49466310761602
 31
0.0
  0
ARC
  8
0
 62
0
 10
15.000000435847209
 20
15.00000000004377
 30
0.0
 40
5.499999999998727
 50
-145.237989637956
 51
-124.999988215673
  0
LINE
  8
0
 62
0
 10
10.481599532548966
 20
11.864070588040931
 30
0.0
 11
11.719438668858697
 21
13.399870476234241
 31
0.0
  0
ARC
  8
0
 62
0
 10
15.000000435847209
 20
15.00000000004377
 30
0.0
 40
3.649999999998599
 50
153.99869294362003
 51
-153.99869294355588
  0
LINE
  8
0
 62
0
 10
11.719438668858697
 20
16.60012952384875
 30
0.0
 11
10.481599532547257
 21
18.13592941204092
 31
0.0
  0
ARC
  8
0
 62
0
 10
15.000000435847209
 20
15.00000000004377
 30
0.0
 40
5.499999999988961
 50
124.99998821588358
 51
145.23798963801477
  0
LINE
  8
0
 62
0
 10
11.845330962544562
 20
19.505336892447644
 30
0.0
 11
13.399870839344612
 21
18.280561731573357
 31
0.0
  0
ARC
  8
0
 62
0
 10
15.000000435847209
 20
15.00000000004377
 30
0.0
 40
3.649999999984388
 50
63.99869167372662
 51
116.00130832606
  0
LINE
  8
0
 62
0
 10
16.60013003235606
 20
18.280561731555167
 30
0.0
 11
18.15466990914531
 21
19.505336892468108
 31
0.0
  0
ARC
  8
0
 62
0
 10
15.000000435847209
 20
15.00000000004377
 30
0.0
 40
5.500000000000505
 50
34.76201036197997
 51
55.00001178427753
  0
LINE
  8
0
 62
0
 10
19.518401339148863
 20
18.13592941204149
 30
0.0
 11
18.280562202840837
 21
16.60012952384932
 31
0.0
  0
ARC
  8
0
 62
0
 10
57.700000843853175
 20
4.4999996824475375
 30
0.0
 40
0.999999990438205
 50
-8.537736462515939e-07
 51
90.000000547776
  0
LINE
  8
0
 62
0
 10
58.700000834290634
 20
4.499999672886474
 30
0.0
 11
58.700000834290634
 21
2.299998909944634
 31
0.0
  0
ARC
  8
0
 62
0
 10
57.70000084385261
 20
2.2999989004421195
 30
0.0
 40
0.999999990439093
 50
-90.00000054771087
 51
8.537736462515939e-07
  0
LINE
  8
0
 62
0
 10
57.70000083429325
 20
1.2999989100029552
 30
0.0
 11
55.50000007135027
 21
1.2999989100029552
 31
0.0
  0
ARC
  8
0
 62
0
 10
55.50000006174885
 20
2.2999989004421195
 30
0.0
 40
0.999999990439982
 50
179.99999914622634
 51
-89.99999944987906
  0
LINE
  8
0
 62
0
 10
54.50000007130855
 20
2.2999989100014773
 30
0.0
 11
54.50000007130855
 21
4.499999672944455
 31
0.0
  0
ARC
  8
0
 62
0
 10
55.50000006174828
 20
4.499999682445832
 30
0.0
 40
0.999999990439093
 50
89.99999945232172
 51
-179.99999914622634
  0
LINE
  8
0
 62
0
 10
55.50000007130707
 20
5.49999967288386
 30
0.0
 11
57.70000083429268
 21
5.499999672886133
 31
0.0
  0
ARC
  8
0
 62
0
 10
57.70000084385204
 20
27.700001099646556
 30
0.0
 40
0.999999990438205
 50
-8.537736462515939e-07
 51
90.000000547776
  0
LINE
  8
0
 62
0
 10
58.7000008342895
 20
27.70000109008606
 30
0.0
 11
58.7000008342895
 21
25.50000032714422
 31
0.0
  0
ARC
  8
0
 62
0
 10
57.70000084385147
 20
25.500000317642844
 30
0.0
 40
0.999999990439093
 50
-90.00000054774344
 51
8.537736462515939e-07
  0
LINE
  8
0
 62
0
 10
57.700000834291544
 20
24.500000327202542
 30
0.0
 11
55.500000071348566
 21
24.500000327201974
 31
0.0
  0
ARC
  8
0
 62
0
 10
55.50000006174771
 20
25.500000317642844
 30
0.0
 40
0.999999990439982
 50
179.99999914622634
 51
-89.99999944991161
  0
LINE
  8
0
 62
0
 10
54.50000007130741
 20
25.5000003272022
 30
0.0
 11
54.50000007130741
 21
27.700001090144042
 31
0.0
  0
ARC
  8
0
 62
0
 10
55.500000061747144
 20
27.700001099646556
 30
0.0
 40
0.999999990439093
 50
89.99999945232172
 51
-179.99999914622634
  0
LINE
  8
0
 62
0
 10
55.500000071305934
 20
28.700001090084015
 30
0.0
 11
57.700000834291544
 21
28.70000109008572
 31
0.0
  0
ARC
  8
0
 62
0
 10
2.300000027848636
 20
4.499999682444695
 30
0.0
 40
0.999999990439093
 50
89.99999945225657
 51
-179.99999914622634
  0
LINE
  8
0
 62
0
 10
2.3000000374085623
 20
5.499999672883856
 30
0.0
 11
4.500000800392467
 21
5.499999672883288
 31
0.0
  0
ARC
  8
0
 62
0
 10
4.50000080997911
 20
4.4999996825117705
 30
0.0
 40
0.999999990370703
 50
-8.537736462515939e-07
 51
90.00000054927418
  0
LINE
  8
0
 62
0
 10
5.500000800351202
 20
4.4999996729416125
 30
0.0
 11
5.5000008003921295
 21
2.299998909998635
 31
0.0
  0
ARC
  8
0
 62
0
 10
4.500000809950119
 20
2.2999989004421195
 30
0.0
 40
0.999999990441758
 50
-90.00000054992555
 51
8.537736462515939e-07
  0
LINE
  8
0
 62
0
 10
4.500000800352108
 20
1.299998910000113
 30
0.0
 11
2.3000000374091307
 21
1.299998910000113
 31
0.0
  0
ARC
  8
0
 62
0
 10
2.3000000278202144
 20
2.2999989003699284
 30
0.0
 40
0.999999990369815
 50
179.99999914622634
 51
-89.99999945059557
  0
LINE
  8
0
 62
0
 10
1.3000000374504026
 20
2.2999989099412232
 30
0.0
 11
1.3000000374094753
 21
4.499999672883064
 31
0.0
  0
ARC
  8
0
 62
0
 10
2.3000000278474992
 20
27.700001099643714
 30
0.0
 40
0.999999990439093
 50
89.99999945225657
 51
-179.99999914622634
  0
LINE
  8
0
 62
0
 10
2.3000000374074254
 20
28.700001090083447
 30
0.0
 11
4.50000080039133
 21
28.70000109008288
 31
0.0
  0
ARC
  8
0
 62
0
 10
4.500000809977973
 20
27.700001099712495
 30
0.0
 40
0.999999990370703
 50
-8.537736462515939e-07
 51
90.00000054927418
  0
LINE
  8
0
 62
0
 10
5.500000800350062
 20
27.7000010901412
 30
0.0
 11
5.500000800390989
 21
25.50000032719936
 31
0.0
  0
ARC
  8
0
 62
0
 10
4.5000008099489825
 20
25.500000317641707
 30
0.0
 40
0.999999990441758
 50
-90.00000054995812
 51
8.537736462515939e-07
  0
LINE
  8
0
 62
0
 10
4.500000800350403
 20
24.500000327199132
 30
0.0
 11
2.3000000374074254
 21
24.500000327199132
 31
0.0
  0
ARC
  8
0
 62
0
 10
2.3000000278190775
 20
25.50000031757179
 30
0.0
 40
0.999999990369815
 50
179.99999914622634
 51
-89.99999945062814
  0
LINE
  8
0
 62
0
 10
1.3000000374492622
 20
25.50000032714081
 30
0.0
 11
1.300000037408335
 21
27.70000109008265
 31
0.0
  0
LINE
  8
0
 62
0
 10
10.50000087169651
 20
29.79999999991776
 30
0.0
 11
10.500000871576571
 21
29.50000000004536
 31
0.0
  0
LINE
  8
0
 62
0
 10
10.500000871576571
 20
29.50000000004536
 30
0.0
 11
10.800000062249932
 21
29.500000000039677
 31
0.0
  0
ARC
  8
0
 62
0
 10
10.800000062251069
 20
29.29999962644274
 30
0.0
 40
0.200000373596687
 50
-0.0
 51
90.00000000032568
  0
LINE
  8
0
 62
0
 10
11.000000435847436
 20
29.299999626440467
 30
0.0
 11
11.000000435874153
 21
28.29999956424672
 31
0.0
  0
ARC
  8
0
 62
0
 10
10.500000435874039
 20
28.299999564233644
 30
0.0
 40
0.499999999999723
 50
-90.0
 51
0.0
  0
LINE
  8
0
 62
0
 10
10.500000435874039
 20
27.799999564234668
 30
0.0
 11
7.250000435847436
 21
27.799999564232962
 31
0.0
  0
ARC
  8
0
 62
0
 10
7.250000435849142
 20
27.29999956423228
 30
0.0
 40
0.500000000000611
 50
90.00000000019541
 51
180.0
  0
LINE
  8
0
 62
0
 10
6.750000435849596
 20
27.29999956423285
 30
0.0
 11
6.750000435849596
 21
25.257106345428042
 31
0.0
  0
ARC
  8
0
 62
0
 10
7.250000435851415
 20
25.25710634542861
 30
0.0
 40
0.500000000002387
 50
-180.0
 51
-135.0000000001844
  0
LINE
  8
0
 62
0
 10
6.8964470452553535
 20
24.903552954834822
 30
0.0
 11
10.649087960341898
 21
21.15091203974771
 31
0.0
  0
ARC
  8
0
 62
0
 10
11.002641350940234
 20
21.50446543035173
 30
0.0
 40
0.500000000009493
 50
-134.99999999953957
 51
-90.00000000039083
  0
LINE
  8
0
 62
0
 10
11.002641350936823
 20
21.004465430340815
 30
0.0
 11
14.046411135704215
 21
21.004465430341384
 31
0.0
  0
ARC
  8
0
 62
0
 10
14.046411135707057
 20
20.804465430352366
 30
0.0
 40
0.199999999989764
 50
60.000083842697876
 51
90.00000000081423
  0
LINE
  8
0
 62
0
 10
14.146410882245004
 20
20.977670657432554
 30
0.0
 11
14.900000689309262
 21
20.54258684981562
 31
0.0
  0
ARC
  8
0
 62
0
 10
15.000000435850051
 20
20.715792076903767
 30
0.0
 40
0.199999999997758
 50
-119.99991615686687
 51
-60.000083843155025
  0
LINE
  8
0
 62
0
 10
15.100000182391408
 20
20.542586849814484
 30
0.0
 11
15.853589989453393
 21
20.977670657432554
 31
0.0
  0
ARC
  8
0
 62
0
 10
15.953589735991908
 20
20.80446543035748
 30
0.0
 40
0.199999999983547
 50
89.99999999951147
 51
119.9999161581755
  0
LINE
  8
0
 62
0
 10
15.953589735993614
 20
21.004465430341384
 30
0.0
 11
18.99735952076328
 21
21.004465430341384
 31
0.0
  0
ARC
  8
0
 62
0
 10
18.997359520760437
 20
21.50446543034775
 30
0.0
 40
0.500000000005052
 50
-89.99999999967432
 51
-45.00000000032213
  0
LINE
  8
0
 62
0
 10
19.350912911357067
 20
21.15091203974714
 30
0.0
 11
23.103553826441907
 21
24.903552954834254
 31
0.0
  0
ARC
  8
0
 62
0
 10
22.750000435849255
 20
25.257106345428042
 30
0.0
 40
0.499999999998835
 50
-45.000000000092115
 51
0.0
  0
LINE
  8
0
 62
0
 10
23.250000435848232
 20
25.257106345429747
 30
0.0
 11
23.25000043584141
 21
27.299999564240807
 31
0.0
  0
ARC
  8
0
 62
0
 10
22.750000435841297
 20
27.29999956423967
 30
0.0
 40
0.499999999999723
 50
0.0
 51
90.0000000005211
  0
LINE
  8
0
 62
0
 10
22.75000043583675
 20
27.799999564239783
 30
0.0
 11
19.500000435825495
 21
27.79999956423751
 31
0.0
  0
ARC
  8
0
 62
0
 10
19.500000435825495
 20
28.299999564237623
 30
0.0
 40
0.499999999999723
 50
180.0
 51
-90.0
  0
LINE
  8
0
 62
0
 10
19.00000043582595
 20
28.299999564251834
 30
0.0
 11
19.00000043585096
 21
29.299999626441036
 31
0.0
  0
ARC
  8
0
 62
0
 10
19.200000809447896
 20
29.29999962644331
 30
0.0
 40
0.200000373596687
 50
89.99999999983716
 51
-180.0
  0
LINE
  8
0
 62
0
 10
19.200000809448465
 20
29.500000000040245
 30
0.0
 11
19.500000000145132
 21
29.499999999970328
 31
0.0
  0
LINE
  8
0
 62
0
 10
19.500000000145132
 20
29.499999999970328
 30
0.0
 11
19.50000000000018
 21
29.799999999903548
 31
0.0
  0
ARC
  8
0
 62
0
 10
19.7
 20
29.800000000001887
 30
0.0
 40
0.199999999998646
 50
90.0
 51
-180.0
  0
LINE
  8
0
 62
0
 10
19.7
 20
30.0
 30
0.0
 11
40.300000871696696
 21
30.0
 31
0.0
  0
ARC
  8
0
 62
0
 10
40.30000087169954
 20
29.800000000003024
 30
0.0
 40
0.199999999997758
 50
-0.0
 51
90.00000000081423
  0
LINE
  8
0
 62
0
 10
40.500000871696514
 20
29.799999999904685
 30
0.0
 11
40.50000087155384
 21
29.499999999971465
 31
0.0
  0
LINE
  8
0
 62
0
 10
40.50000087155384
 20
29.499999999971465
 30
0.0
 11
40.800000062249936
 21
29.500000000041382
 31
0.0
  0
ARC
  8
0
 62
0
 10
40.80000006225107
 20
29.299999626444446
 30
0.0
 40
0.200000373596687
 50
-0.0
 51
90.00000000032568
  0
LINE
  8
0
 62
0
 10
41.00000043584744
 20
29.299999626442172
 30
0.0
 11
41.000000435874156
 21
28.29999956425297
 31
0.0
  0
ARC
  8
0
 62
0
 10
40.50000043587404
 20
28.29999956423876
 30
0.0
 40
0.500000000000611
 50
-90.0
 51
0.0
  0
LINE
  8
0
 62
0
 10
40.50000043587404
 20
27.799999564238647
 30
0.0
 11
37.25000043586222
 21
27.799999564238647
 31
0.0
  0
ARC
  8
0
 62
0
 10
37.250000435856535
 20
27.2999995642391
 30
0.0
 40
0.499999999999723
 50
89.99999999934862
 51
180.0
  0
LINE
  8
0
 62
0
 10
36.75000043585642
 20
27.299999564241375
 30
0.0
 11
36.75000043584846
 21
25.257106345430316
 31
0.0
  0
ARC
  8
0
 62
0
 10
37.25000043584005
 20
25.257106345426905
 30
0.0
 40
0.499999999991729
 50
180.0
 51
-134.99999999926334
  0
LINE
  8
0
 62
0
 10
36.89644704525706
 20
24.903552954834822
 30
0.0
 11
40.6490879603419
 21
21.150912039749414
 31
0.0
  0
ARC
  8
0
 62
0
 10
41.00264135094024
 20
21.504465430353434
 30
0.0
 40
0.500000000009493
 50
-134.99999999954
 51
-90.00000000039083
  0
LINE
  8
0
 62
0
 10
41.00264135093683
 20
21.00446543034252
 30
0.0
 11
44.04641113570422
 21
21.00446543034309
 31
0.0
  0
ARC
  8
0
 62
0
 10
44.04641113570706
 20
20.80446543035407
 30
0.0
 40
0.199999999989764
 50
60.000083842697876
 51
90.00000000081423
  0
LINE
  8
0
 62
0
 10
44.14641088224501
 20
20.97767065743426
 30
0.0
 11
44.900000689309266
 21
20.542586849817326
 31
0.0
  0
ARC
  8
0
 62
0
 10
45.00000043584892
 20
20.715792076905473
 30
0.0
 40
0.199999999997758
 50
-119.99991615658548
 51
-60.00008384271084
  0
LINE
  8
0
 62
0
 10
45.10000018239141
 20
20.542586849817326
 30
0.0
 11
45.8535899894534
 21
20.97767065743426
 31
0.0
  0
ARC
  8
0
 62
0
 10
45.95358973599191
 20
20.804465430359187
 30
0.0
 40
0.199999999984435
 50
89.99999999951147
 51
119.99991615817795
  0
LINE
  8
0
 62
0
 10
45.95358973599362
 20
21.00446543034309
 30
0.0
 11
48.99735952076328
 21
21.00446543034309
 31
0.0
  0
ARC
  8
0
 62
0
 10
48.99735952076044
 20
21.504465430349455
 30
0.0
 40
0.500000000005052
 50
-89.99999999967432
 51
-45.000000000322416
  0
LINE
  8
0
 62
0
 10
49.35091291135707
 20
21.150912039748846
 30
0.0
 11
53.10355382644191
 21
24.903552954838233
 31
0.0
  0
ARC
  8
0
 62
0
 10
52.75000043585494
 20
25.257106345430316
 30
0.0
 40
0.499999999995282
 50
-45.00000000041454
 51
0.0
  0
LINE
  8
0
 62
0
 10
53.25000043584937
 20
25.257106345430884
 30
0.0
 11
53.25000043584937
 21
27.29999956423569
 31
0.0
  0
ARC
  8
0
 62
0
 10
52.75000043584926
 20
27.299999564234554
 30
0.0
 40
0.499999999999723
 50
0.0
 51
90.0
  0
LINE
  8
0
 62
0
 10
52.75000043584926
 20
27.799999564235236
 30
0.0
 11
49.5000004358255
 21
27.799999564235804
 31
0.0
  0
ARC
  8
0
 62
0
 10
49.5000004358255
 20
28.299999564235918
 30
0.0
 40
0.500000000000611
 50
180.0
 51
-90.0
  0
LINE
  8
0
 62
0
 10
49.00000043582595
 20
28.299999564248992
 30
0.0
 11
49.000000435850964
 21
29.29999962644274
 31
0.0
  0
ARC
  8
0
 62
0
 10
49.2000008094479
 20
29.299999626445015
 30
0.0
 40
0.200000373596687
 50
89.99999999983716
 51
-180.0
  0
LINE
  8
0
 62
0
 10
49.20000080944847
 20
29.50000000004195
 30
0.0
 11
49.50000000012069
 21
29.500000000047635
 31
0.0
  0
LINE
  8
0
 62
0
 10
49.50000000012069
 20
29.500000000047635
 30
0.0
 11
49.499999999999616
 21
29.799999999920033
 31
0.0
  0
ARC
  8
0
 62
0
 10
49.7
 20
29.80000000000132
 30
0.0
 40
0.199999999999534
 50
90.0
 51
-180.0
  0
LINE
  8
0
 62
0
 10
49.7
 20
30.000000000001137
 30
0.0
 11
58.00000078204876
 21
30.000000000001137
 31
0.0
  0
ARC
  8
0
 62
0
 10
58.000000782046484
 20
28.000000346241336
 30
0.0
 40
1.999999653761186
 50
0.0
 51
89.99999999993486
  0
LINE
  8
0
 62
0
 10
60.00000043580742
 20
28.00000034624361
 30
0.0
 11
60.0000004358961
 21
19.699999564197697
 31
0.0
  0
ARC
  8
0
 62
0
 10
59.80000043589855
 20
19.699999564193718
 30
0.0
 40
0.199999999997758
 50
-90.00000002800924
 51
0.0
  0
LINE
  8
0
 62
0
 10
59.80000043580078
 20
19.499999564195605
 30
0.0
 11
59.500000435776045
 21
19.499999564341124
 31
0.0
  0
LINE
  8
0
 62
0
 10
59.500000435776045
 20
19.499999564341124
 30
0.0
 11
59.5000004358471
 21
19.20000037364389
 31
0.0
  0
ARC
  8
0
 62
0
 10
59.3000000622513
 20
19.20000037364389
 30
0.0
 40
0.200000373596687
 50
-90.00000000065138
 51
-0.0
  0
LINE
  8
0
 62
0
 10
59.300000062249026
 20
19.00000000004752
 30
0.0
 11
58.2999996729413
 21
19.000000000020805
 31
0.0
  0
ARC
  8
0
 62
0
 10
58.29999967292879
 20
19.50000000002092
 30
0.0
 40
0.499999999999723
 50
180.0
 51
-89.99999999856696
  0
LINE
  8
0
 62
0
 10
57.79999967292868
 20
19.500000000023192
 30
0.0
 11
57.7999996729463
 21
22.750000327141038
 31
0.0
  0
ARC
  8
0
 62
0
 10
57.299999672946186
 20
22.75000032714445
 30
0.0
 40
0.499999999999723
 50
-0.0
 51
90.0
  0
LINE
  8
0
 62
0
 10
57.299999672946186
 20
23.250000327144562
 30
0.0
 11
55.256944926919985
 21
23.250000327146267
 31
0.0
  0
ARC
  8
0
 62
0
 10
55.256944926919985
 20
22.750000327146154
 30
0.0
 40
0.500000000000611
 50
90.0
 51
134.9683984329764
  0
LINE
  8
0
 62
0
 10
54.90358659295937
 20
23.10374866681741
 30
0.0
 11
51.14664210188978
 21
19.350946187606155
 31
0.0
  0
ARC
  8
0
 62
0
 10
51.50000043585153
 20
18.997197847933194
 30
0.0
 40
0.500000000003275
 50
134.9683984329302
 51
-180.0
  0
LINE
  8
0
 62
0
 10
51.000000435849714
 20
18.997197847933194
 30
0.0
 11
51.000000435849714
 21
15.953190145349367
 31
0.0
  0
ARC
  8
0
 62
0
 10
50.80000043583284
 20
15.953190145355052
 30
0.0
 40
0.200000000015521
 50
-29.786255757764952
 51
-0.0
  0
LINE
  8
0
 62
0
 10
50.97357736457725
 20
15.853836988311514
 30
0.0
 11
50.54172071683213
 21
15.099353157081623
 31
0.0
  0
ARC
  8
0
 62
0
 10
50.71529764556006
 20
15.000000000042064
 30
0.0
 40
0.199999999998646
 50
150.2137442408809
 51
-150.21374424172788
  0
LINE
  8
0
 62
0
 10
50.54172071683213
 20
14.900646843005916
 30
0.0
 11
50.97357736457725
 21
14.146163011774888
 31
0.0
  0
ARC
  8
0
 62
0
 10
50.80000043581806
 20
14.046809854729077
 30
0.0
 40
0.20000000003062
 50
0.0
 51
29.786255756226325
  0
LINE
  8
0
 62
0
 10
51.000000435849714
 20
14.046809854736466
 30
0.0
 11
51.00000043585028
 21
11.002802152153208
 31
0.0
  0
ARC
  8
0
 62
0
 10
51.5000004358521
 20
11.002802152154914
 30
0.0
 40
0.500000000003275
 50
-180.0
 51
-134.96839843279233
  0
LINE
  8
0
 62
0
 10
51.14664210189035
 20
10.649053812480247
 30
0.0
 11
54.903586592961645
 21
6.896251333271266
 31
0.0
  0
ARC
  8
0
 62
0
 10
55.25694492692112
 20
7.249999672944227
 30
0.0
 40
0.499999999999723
 50
-134.9683984327463
 51
-90.0
  0
LINE
  8
0
 62
0
 10
55.25694492692112
 20
6.749999672944682
 30
0.0
 11
57.29999967295187
 21
6.749999672944682
 31
0.0
  0
ARC
  8
0
 62
0
 10
57.29999967295187
 20
7.249999672944227
 30
0.0
 40
0.500000000000611
 50
-90.0
 51
-0.0
  0
LINE
  8
0
 62
0
 10
57.799999672951984
 20
7.249999672944227
 30
0.0
 11
57.799999672929246
 21
10.500000000064347
 31
0.0
  0
ARC
  8
0
 62
0
 10
58.29999967292993
 20
10.50000000006662
 30
0.0
 40
0.500000000000611
 50
89.9999999986321
 51
-180.0
  0
LINE
  8
0
 62
0
 10
58.299999672941865
 20
11.000000000067871
 30
0.0
 11
59.300000062249595
 21
11.000000000042292
 31
0.0
  0
ARC
  8
0
 62
0
 10
59.30000006225187
 20
10.799999626445924
 30
0.0
 40
0.200000373595799
 50
-0.0
 51
90.00000000065138
  0
LINE
  8
0
 62
0
 10
59.50000043584767
 20
10.79999962644365
 30
0.0
 11
59.50000043585392
 21
10.500000435771994
 31
0.0
  0
LINE
  8
0
 62
0
 10
59.50000043585392
 20
10.500000435771994
 30
0.0
 11
59.800000435817836
 21
10.500000435893071
 31
0.0
  0
ARC
  8
0
 62
0
 10
59.80000043589912
 20
10.300000435892684
 30
0.0
 40
0.200000000000422
 50
-0.0
 51
90.00000002328674
  0
LINE
  8
0
 62
0
 10
60.00000043589894
 20
10.30000043589041
 30
0.0
 11
60.00000043580856
 21
1.9999996538427922
 31
0.0
  0
ARC
  8
0
 62
0
 10
58.000000782049895
 20
1.9999996538456344
 30
0.0
 40
1.99999965375941
 50
-89.99999999998371
 51
-0.0
  0
LINE
  8
0
 62
0
 10
58.00000078205046
 20
8.526512829121202e-11
 30
0.0
 11
49.70000000000171
 21
8.526512829121202e-11
 31
0.0
  0
ARC
  8
0
 62
0
 10
49.70000000000171
 20
0.20000000008508323
 30
0.0
 40
0.199999999998646
 50
180.0
 51
-90.0
  0
LINE
  8
0
 62
0
 10
49.50000000000189
 20
0.20000000018228548
 30
0.0
 11
49.50000000014684
 21
0.5000000001160743
 31
0.0
  0
LINE
  8
0
 62
0
 10
49.50000000014684
 20
0.5000000001160743
 30
0.0
 11
49.200000809450174
 21
0.5000000000455884
 31
0.0
  0
ARC
  8
0
 62
0
 10
49.200000809449605
 20
0.7000003736425242
 30
0.0
 40
0.200000373596687
 50
180.0
 51
-89.99999999983716
  0
LINE
  8
0
 62
0
 10
49.00000043585267
 20
0.7000003736436611
 30
0.0
 11
49.00000043582709
 21
1.7000004358345677
 31
0.0
  0
ARC
  8
0
 62
0
 10
49.500000435826635
 20
1.7000004358470733
 30
0.0
 40
0.500000000000611
 50
90.0
 51
-180.0
  0
LINE
  8
0
 62
0
 10
49.500000435826635
 20
2.200000435848324
 30
0.0
 11
52.75000043583789
 21
2.200000435847187
 31
0.0
  0
ARC
  8
0
 62
0
 10
52.75000043584244
 20
2.700000435846164
 30
0.0
 40
0.499999999998835
 50
-90.0000000005211
 51
-0.0
  0
LINE
  8
0
 62
0
 10
53.250000435841415
 20
2.700000435845027
 30
0.0
 11
53.25000043584937
 21
4.742893654656655
 31
0.0
  0
ARC
  8
0
 62
0
 10
52.750000435850396
 20
4.742893654660065
 30
0.0
 40
0.499999999998835
 50
-0.0
 51
44.99999999999971
  0
LINE
  8
0
 62
0
 10
53.10355382644305
 20
5.096447045252717
 30
0.0
 11
49.35091291135764
 21
8.84908796033642
 31
0.0
  0
ARC
  8
0
 62
0
 10
48.99735952076158
 20
8.495534569742631
 30
0.0
 40
0.500000000000611
 50
44.99999999981605
 51
89.99999999973944
  0
LINE
  8
0
 62
0
 10
48.99735952076385
 20
8.995534569743882
 30
0.0
 11
45.953589735994186
 21
8.995534569743882
 31
0.0
  0
ARC
  8
0
 62
0
 10
45.95358973599362
 20
9.195534569740857
 30
0.0
 40
0.199999999995981
 50
-119.99991615650394
 51
-89.99999999983716
  0
LINE
  8
0
 62
0
 10
45.853589989453965
 20
9.022329342652142
 30
0.0
 11
45.10000018239198
 21
9.45741315027135
 31
0.0
  0
ARC
  8
0
 62
0
 10
45.000000435849486
 20
9.284207923182066
 30
0.0
 40
0.199999999997758
 50
60.0000838428732
 51
119.99991615658548
  0
LINE
  8
0
 62
0
 10
44.900000689309834
 20
9.457413150270213
 30
0.0
 11
44.146410882245576
 21
9.022329342652142
 31
0.0
  0
ARC
  8
0
 62
0
 10
44.046411135705924
 20
9.195534569745405
 30
0.0
 40
0.200000000000422
 50
-90.00000000032568
 51
-60.000083844150105
  0
LINE
  8
0
 62
0
 10
44.04641113570479
 20
8.995534569743882
 30
0.0
 11
41.002641350937395
 21
8.995534569742176
 31
0.0
  0
ARC
  8
0
 62
0
 10
41.002641350940806
 20
8.4955345697324
 30
0.0
 40
0.500000000010381
 50
90.00000000039083
 51
134.99999999958575
  0
LINE
  8
0
 62
0
 10
40.64908796034247
 20
8.84908796033585
 30
0.0
 11
36.896447045256494
 21
5.096447045249306
 31
0.0
  0
ARC
  8
0
 62
0
 10
37.25000043585767
 20
4.742893654654381
 30
0.0
 40
0.500000000006828
 50
135.00000000050727
 51
180.0
  0
LINE
  8
0
 62
0
 10
36.75000043585074
 20
4.742893654655518
 30
0.0
 11
36.75000043585074
 21
2.700000435850143
 31
0.0
  0
ARC
  8
0
 62
0
 10
37.25000043585028
 20
2.7000004358524166
 30
0.0
 40
0.500000000000611
 50
-180.0
 51
-90.00000000019541
  0
LINE
  8
0
 62
0
 10
37.25000043584858
 20
2.200000435851166
 30
0.0
 11
40.50000043587518
 21
2.2000004358488923
 31
0.0
  0
ARC
  8
0
 62
0
 10
40.50000043587518
 20
1.700000435849347
 30
0.0
 40
0.500000000000611
 50
-0.0
 51
90.0
  0
LINE
  8
0
 62
0
 10
41.00000043587529
 20
1.7000004358368415
 30
0.0
 11
41.000000435849145
 21
0.7000003736430926
 31
0.0
  0
ARC
  8
0
 62
0
 10
40.80000006225278
 20
0.7000003736430926
 30
0.0
 40
0.200000373596687
 50
-90.00000000032568
 51
-0.0
  0
LINE
  8
0
 62
0
 10
40.80000006225164
 20
0.5000000000455884
 30
0.0
 11
40.50000087157828
 21
0.5000000000387672
 31
0.0
  0
LINE
  8
0
 62
0
 10
40.50000087157828
 20
0.5000000000387672
 30
0.0
 11
40.50000087169822
 21
0.2000003810439921
 31
0.0
  0
ARC
  8
0
 62
0
 10
40.30000049064911
 20
0.2000003810439921
 30
0.0
 40
0.200000381049392
 50
-89.99999999967432
 51
-0.0
  0
LINE
  8
0
 62
0
 10
40.30000049065025
 20
-6.821210263296962e-12
 30
0.0
 11
19.700000381050994
 21
-6.821210263296962e-12
 31
0.0
  0
ARC
  8
0
 62
0
 10
19.70000038105213
 20
0.20000038104285522
 30
0.0
 40
0.20000038105028
 50
-180.0
 51
-90.00000000032568
  0
LINE
  8
0
 62
0
 10
19.500000000003023
 20
0.20000038104285522
 30
0.0
 11
19.500000000122395
 21
0.5000000000376303
 31
0.0
  0
LINE
  8
0
 62
0
 10
19.500000000122395
 20
0.5000000000376303
 30
0.0
 11
19.20000080945017
 21
0.5000000000438831
 31
0.0
  0
ARC
  8
0
 62
0
 10
19.2000008094496
 20
0.7000003736408189
 30
0.0
 40
0.200000373596687
 50
180.0
 51
-89.99999999983716
  0
LINE
  8
0
 62
0
 10
19.000000435852666
 20
0.7000003736419558
 30
0.0
 11
19.000000435827086
 21
1.7000004358357046
 31
0.0
  0
ARC
  8
0
 62
0
 10
19.50000043582663
 20
1.7000004358482101
 30
0.0
 40
0.499999999999723
 50
90.0
 51
-180.0
  0
LINE
  8
0
 62
0
 10
19.50000043582663
 20
2.2000004358477554
 30
0.0
 11
22.750000435852098
 21
2.2000004358505976
 31
0.0
  0
ARC
  8
0
 62
0
 10
22.750000435849824
 20
2.700000435851848
 30
0.0
 40
0.500000000000611
 50
-89.99999999973944
 51
-0.0
  0
LINE
  8
0
 62
0
 10
23.250000435850506
 20
2.7000004358495744
 30
0.0
 11
23.250000435850506
 21
4.742893654654949
 31
0.0
  0
ARC
  8
0
 62
0
 10
22.750000435856077
 20
4.742893654656655
 30
0.0
 40
0.499999999995282
 50
-0.0
 51
45.00000000041454
  0
LINE
  8
0
 62
0
 10
23.103553826443044
 20
5.096447045248738
 30
0.0
 11
19.350912911357636
 21
8.849087960334714
 31
0.0
  0
ARC
  8
0
 62
0
 10
18.997359520761005
 20
8.495534569736947
 30
0.0
 40
0.500000000005052
 50
45.000000000092115
 51
89.99999999967432
  0
LINE
  8
0
 62
0
 10
18.997359520763847
 20
8.99553456974104
 30
0.0
 11
15.953589735994182
 21
8.995534569742176
 31
0.0
  0
ARC
  8
0
 62
0
 10
15.953589735993614
 20
9.195534569739152
 30
0.0
 40
0.199999999995093
 50
-119.99991615650366
 51
-89.99999999983716
  0
LINE
  8
0
 62
0
 10
15.853589989453962
 20
9.022329342650437
 30
0.0
 11
15.100000182391977
 21
9.457413150269645
 31
0.0
  0
ARC
  8
0
 62
0
 10
15.00000043585062
 20
9.284207923180361
 30
0.0
 40
0.199999999997758
 50
60.000083843155025
 51
119.99991615686687
  0
LINE
  8
0
 62
0
 10
14.900000689309831
 20
9.457413150268508
 30
0.0
 11
14.146410882245572
 21
9.022329342650437
 31
0.0
  0
ARC
  8
0
 62
0
 10
14.04641113570592
 20
9.1955345697437
 30
0.0
 40
0.200000000000422
 50
-90.00000000032568
 51
-60.00008384414791
  0
LINE
  8
0
 62
0
 10
14.046411135704783
 20
8.995534569742176
 30
0.0
 11
11.002641350937392
 21
8.995534569741608
 31
0.0
  0
ARC
  8
0
 62
0
 10
11.002641350940234
 20
8.495534569736378
 30
0.0
 40
0.50000000000594
 50
90.00000000032568
 51
135.00000000000014
  0
LINE
  8
0
 62
0
 10
10.649087960342467
 20
8.849087960334145
 30
0.0
 11
6.89644704525649
 21
5.096447045248738
 31
0.0
  0
ARC
  8
0
 62
0
 10
7.250000435841184
 20
4.742893654657792
 30
0.0
 40
0.499999999990841
 50
134.9999999994935
 51
-180.0
  0
LINE
  8
0
 62
0
 10
6.750000435850733
 20
4.7428936546538125
 30
0.0
 11
6.7500004358575545
 21
2.7000004358421847
 31
0.0
  0
ARC
  8
0
 62
0
 10
7.250000435857668
 20
2.7000004358444585
 30
0.0
 40
0.500000000000611
 50
-180.0
 51
-89.99999999934862
  0
LINE
  8
0
 62
0
 10
7.2500004358633525
 20
2.2000004358437764
 30
0.0
 11
10.500000435875176
 21
2.2000004358449132
 31
0.0
  0
ARC
  8
0
 62
0
 10
10.500000435875176
 20
1.7000004358447995
 30
0.0
 40
0.499999999999723
 50
-0.0
 51
90.0
  0
LINE
  8
0
 62
0
 10
11.00000043587529
 20
1.700000435832294
 30
0.0
 11
11.000000435849142
 21
0.7000003736413873
 31
0.0
  0
ARC
  8
0
 62
0
 10
10.800000062252774
 20
0.7000003736413873
 30
0.0
 40
0.200000373596687
 50
-90.00000000032568
 51
-0.0
  0
LINE
  8
0
 62
0
 10
10.800000062251637
 20
0.5000000000438831
 30
0.0
 11
10.500000871555539
 21
0.5000000001138005
 31
0.0
  0
LINE
  8
0
 62
0
 10
10.500000871555539
 20
0.5000000001138005
 30
0.0
 11
10.500000871698216
 21
0.20000000018001174
 31
0.0
  0
ARC
  8
0
 62
0
 10
10.30000087170124
 20
0.2000000000828095
 30
0.0
 40
0.199999999998646
 50
-90.00000000081423
 51
0.0
  0
LINE
  8
0
 62
0
 10
10.300000871698398
 20
8.355982572538778e-11
 30
0.0
 11
2.0000000896507792
 21
8.355982572538778e-11
 31
0.0
  0
ARC
  8
0
 62
0
 10
2.0000000896485055
 20
1.999999653841087
 30
0.0
 40
1.999999653757633
 50
-180.0
 51
-89.99999999993486
  0
LINE
  8
0
 62
0
 10
4.358915468571922e-07
 20
1.9999996538393816
 30
0.0
 11
4.3580116582120354e-07
 21
10.300000435887
 31
0.0
  0
ARC
  8
0
 62
0
 10
0.2000004358021208
 20
10.300000435887
 30
0.0
 40
0.20000000000131
 50
89.99999997703894
 51
-180.0
  0
LINE
  8
0
 62
0
 10
0.20000043588227
 20
10.500000435889092
 30
0.0
 11
0.5000004358467542
 21
10.500000435768584
 31
0.0
  0
LINE
  8
0
 62
0
 10
0.5000004358467542
 20
10.500000435768584
 30
0.0
 11
0.5000004358524386
 21
10.79999962644024
 31
0.0
  0
ARC
  8
0
 62
0
 10
0.7000008094488059
 20
10.799999626442514
 30
0.0
 40
0.200000373596687
 50
89.99999999967432
 51
-180.0
  0
LINE
  8
0
 62
0
 10
0.7000008094499428
 20
11.000000000038881
 30
0.0
 11
1.7000011987588088
 21
11.000000000065029
 31
0.0
  0
ARC
  8
0
 62
0
 10
1.7000011987701775
 20
10.500000000063778
 30
0.0
 40
0.500000000000611
 50
-0.0
 51
90.00000000130275
  0
LINE
  8
0
 62
0
 10
2.2000011987708596
 20
10.500000000061505
 30
0.0
 11
2.200001198749259
 21
7.249999672941385
 31
0.0
  0
ARC
  8
0
 62
0
 10
2.7000011987488044
 20
7.249999672941385
 30
0.0
 40
0.499999999999723
 50
-180.0
 51
-90.0
  0
LINE
  8
0
 62
0
 10
2.7000011987488044
 20
6.74999967294184
 30
0.0
 11
4.743055944778984
 21
6.749999672940135
 31
0.0
  0
ARC
  8
0
 62
0
 10
4.743055944778984
 20
7.249999672941385
 30
0.0
 40
0.500000000000611
 50
-90.0
 51
-45.031601567023905
  0
LINE
  8
0
 62
0
 10
5.096414278741303
 20
6.896251333268424
 30
0.0
 11
8.853358769809756
 21
10.649053812477973
 31
0.0
  0
ARC
  8
0
 62
0
 10
8.500000435848005
 20
11.00280215215264
 30
0.0
 40
0.500000000002387
 50
-45.031601567207886
 51
-0.0
  0
LINE
  8
0
 62
0
 10
9.000000435850392
 20
11.002802152150934
 30
0.0
 11
9.000000435849824
 21
14.046809854734192
 31
0.0
  0
ARC
  8
0
 62
0
 10
9.200000435867832
 20
14.046809854730213
 30
0.0
 40
0.200000000018186
 50
150.2137442428425
 51
180.0
  0
LINE
  8
0
 62
0
 10
9.026423507121148
 20
14.146163011772614
 30
0.0
 11
9.458280154866838
 21
14.900646843003642
 31
0.0
  0
ARC
  8
0
 62
0
 10
9.284703226141755
 20
15.00000000003979
 30
0.0
 40
0.199999999998646
 50
-29.786255758676994
 51
29.786255759524956
  0
LINE
  8
0
 62
0
 10
9.458280154866838
 20
15.09935315707935
 30
0.0
 11
9.026423507121148
 21
15.85383698830924
 31
0.0
  0
ARC
  8
0
 62
0
 10
9.200000435863284
 20
15.953190145350504
 30
0.0
 40
0.200000000014633
 50
-180.0
 51
-150.21374424247793
  0
LINE
  8
0
 62
0
 10
9.000000435849824
 20
15.953190145347094
 30
0.0
 11
9.000000435849824
 21
18.99719784793092
 31
0.0
  0
ARC
  8
0
 62
0
 10
8.500000435847436
 20
18.99719784793092
 30
0.0
 40
0.500000000002387
 50
-0.0
 51
45.03160156706971
  0
LINE
  8
0
 62
0
 10
8.853358769809187
 20
19.35094618760388
 30
0.0
 11
5.096414278737324
 21
23.103748666814568
 31
0.0
  0
ARC
  8
0
 62
0
 10
4.743055944777847
 20
22.75000032714331
 30
0.0
 40
0.499999999999723
 50
45.03160156711608
 51
90.0
  0
LINE
  8
0
 62
0
 10
4.743055944777847
 20
23.25000032714172
 30
0.0
 11
2.7000011987505097
 21
23.25000032714115
 31
0.0
  0
ARC
  8
0
 62
0
 10
2.7000011987505097
 20
22.750000327141606
 30
0.0
 40
0.499999999999723
 50
90.0
 51
-180.0
  0
LINE
  8
0
 62
0
 10
2.200001198750396
 20
22.750000327138196
 30
0.0
 11
2.200001198770291
 21
19.50000000002035
 31
0.0
  0
ARC
  8
0
 62
0
 10
1.7000011987701775
 20
19.500000000018076
 30
0.0
 40
0.499999999999723
 50
-90.0000000013679
 51
0.0
  0
LINE
  8
0
 62
0
 10
1.7000011987582404
 20
19.000000000017963
 30
0.0
 11
0.7000008094493744
 21
19.000000000042405
 31
0.0
  0
ARC
  8
0
 62
0
 10
0.7000008094482375
 20
19.20000037363991
 30
0.0
 40
0.200000373596687
 50
180.0
 51
-89.99999999967432
  0
LINE
  8
0
 62
0
 10
0.5000004358518702
 20
19.200000373640478
 30
0.0
 11
0.5000004359217876
 21
19.499999564337713
 31
0.0
  0
LINE
  8
0
 62
0
 10
0.5000004359217876
 20
19.499999564337713
 30
0.0
 11
0.20000043589818617
 21
19.499999564192194
 31
0.0
  0
ARC
  8
0
 62
0
 10
0.20000043580155236
 20
19.699999564194286
 30
0.0
 40
0.20000000000131
 50
-180.0
 51
-89.99999997231644
  0
LINE
  8
0
 62
0
 10
4.3580059738701493e-07
 20
19.699999564194286
 30
0.0
 11
4.35890409988815e-07
 21
28.0000003462402
 31
0.0
  0
ARC
  8
0
 62
0
 10
2.000000089650211
 20
28.000000346239062
 30
0.0
 40
1.99999965375941
 50
90.00000000003257
 51
180.0
  0
LINE
  8
0
 62
0
 10
2.000000089649074
 20
29.999999999998863
 30
0.0
 11
10.300000871696692
 21
29.999999999998863
 31
0.0
  0
ARC
  8
0
 62
0
 10
10.300000871696692
 20
29.799999999999045
 30
0.0
 40
0.200000000000422
 50
-0.0
 51
90.0
  0
ENDBLK
  0
ENDSEC
  0
SECTION
  2
ENTITIES
  0
INSERT
  2
SHAPE2DVIEW
  8
0
 62
0
 10
0.0
 20
0.0
 30
0.0
  0
ENDSEC
  0
EOF
